<svg width="22" height="22" viewBox="0 0 22 22" fill="none" xmlns="http://www.w3.org/2000/svg">
<path d="M10.0833 3.66666H3.66665C3.18042 3.66666 2.7141 3.85981 2.37028 4.20363C2.02647 4.54744 1.83331 5.01376 1.83331 5.49999V18.3333C1.83331 18.8196 2.02647 19.2859 2.37028 19.6297C2.7141 19.9735 3.18042 20.1667 3.66665 20.1667H16.5C16.9862 20.1667 17.4525 19.9735 17.7963 19.6297C18.1402 19.2859 18.3333 18.8196 18.3333 18.3333V11.9167" stroke="#0C0C0C" stroke-width="2" stroke-linecap="round" stroke-linejoin="round"/>
<path d="M16.9583 2.29168C17.323 1.92701 17.8176 1.72214 18.3333 1.72214C18.849 1.72214 19.3436 1.92701 19.7083 2.29168C20.073 2.65635 20.2779 3.15096 20.2779 3.66668C20.2779 4.18241 20.073 4.67701 19.7083 5.04168L11 13.75L7.33331 14.6667L8.24998 11L16.9583 2.29168Z" stroke="#0C0C0C" stroke-width="2" stroke-linecap="round" stroke-linejoin="round"/>
</svg>
